HIERARCHY
ROOT root
{
	OFFSET	0	13.1	24.9
	CHANNELS 6  Xposition Yposition Zposition Xrotation Yrotation Zrotation
	JOINT spine_1
	{
		OFFSET	0	9.99999	0
		CHANNELS 3  Xrotation Yrotation Zrotation
		JOINT spine_2
		{
			OFFSET	0	112	-10
			CHANNELS 3  Xrotation Yrotation Zrotation
			JOINT spine_3
			{
				OFFSET	0	206.5	19.3
				CHANNELS 3  Xrotation Yrotation Zrotation
				JOINT spine_4
				{
					OFFSET	0	110.4	14.6
					CHANNELS 3  Xrotation Yrotation Zrotation
					JOINT neck_1
					{
						OFFSET	0	71.8	-50.3
						CHANNELS 3  Xrotation Yrotation Zrotation
						JOINT neck_2
						{
							OFFSET	0	86.2	-25.8
							CHANNELS 3  Xrotation Yrotation Zrotation
							JOINT head_ee
							{
								OFFSET	0	179.8	-8.7
								CHANNELS 3  Xrotation Yrotation Zrotation
								End Site
								{
									OFFSET	1	0	0
								}
							}
						}
					}
					JOINT left_clavicle
					{
						OFFSET	-43.2	22.4	-70.8
						CHANNELS 3  Xrotation Yrotation Zrotation
						JOINT left_shoulder
						{
							OFFSET	-93.9	-5.79999	48.7
							CHANNELS 3  Xrotation Yrotation Zrotation
							JOINT left_elbow
							{
								OFFSET	-291.4	-30.8	15.2
								CHANNELS 3  Xrotation Yrotation Zrotation
								JOINT left_lowarm_twist
								{
									OFFSET	-110.7	-3.89999	13.6
									CHANNELS 3  Xrotation Yrotation Zrotation
									JOINT left_hand
									{
										OFFSET	-110.7	-3.89999	13.6
										CHANNELS 3  Xrotation Yrotation Zrotation
										JOINT left_ee
										{
											OFFSET	-80.8	-5.10001	12.1
											CHANNELS 3  Xrotation Yrotation Zrotation
											End Site
											{
												OFFSET	1	0	0
											}
										}
									}
								}
							}
						}
					}
					JOINT right_clavicle
					{
						OFFSET	43.2	22.4	-70.8
						CHANNELS 3  Xrotation Yrotation Zrotation
						JOINT right_shoulder
						{
							OFFSET	93.9	-5.79999	48.7
							CHANNELS 3  Xrotation Yrotation Zrotation
							JOINT right_elbow
							{
								OFFSET	291.4	-30.8	15.2
								CHANNELS 3  Xrotation Yrotation Zrotation
								JOINT right_lowarm_twist
								{
									OFFSET	110.7	-3.89999	13.6
									CHANNELS 3  Xrotation Yrotation Zrotation
									JOINT right_hand
									{
										OFFSET	110.7	-3.89999	13.6
										CHANNELS 3  Xrotation Yrotation Zrotation
										JOINT right_ee
										{
											OFFSET	80.8	-5.10001	12.1
											CHANNELS 3  Xrotation Yrotation Zrotation
											End Site
											{
												OFFSET	1	0	0
											}
										}
									}
								}
							}
						}
					}
				}
			}
		}
	}
	JOINT left_hip
	{
		OFFSET	-82.8	-127.5	0.300001
		CHANNELS 3  Xrotation Yrotation Zrotation
		JOINT left_knee
		{
			OFFSET	-28.2	-396.7	2.2
			CHANNELS 3  Xrotation Yrotation Zrotation
			JOINT left_ankle
			{
				OFFSET	-11.7	-411.3	35.4
				CHANNELS 3  Xrotation Yrotation Zrotation
				JOINT left_toes
				{
					OFFSET	0	-60	-88.6
					CHANNELS 3  Xrotation Yrotation Zrotation
					JOINT left_foot_ee
					{
						OFFSET	-22.5	-16.5	-42.2
						CHANNELS 3  Xrotation Yrotation Zrotation
						End Site
						{
							OFFSET	1	0	0
						}
					}
				}
			}
		}
	}
	JOINT right_hip
	{
		OFFSET	82.8	-127.5	0.300001
		CHANNELS 3  Xrotation Yrotation Zrotation
		JOINT right_knee
		{
			OFFSET	28.2	-396.7	2.2
			CHANNELS 3  Xrotation Yrotation Zrotation
			JOINT right_ankle
			{
				OFFSET	11.7	-411.3	35.4
				CHANNELS 3  Xrotation Yrotation Zrotation
				JOINT right_toes
				{
					OFFSET	0	-60	-88.6
					CHANNELS 3  Xrotation Yrotation Zrotation
					JOINT right_foot_ee
					{
						OFFSET	22.5	-16.5	-42.2
						CHANNELS 3  Xrotation Yrotation Zrotation
						End Site
						{
							OFFSET	1	0	0
						}
					}
				}
			}
		}
	}
}
MOTION
Frames: 13
Frame Time: 0.02
3460.56 669.736 -436.629 -162.659 -46.6766 -167.141 4.78798 0.35591 0.829856 4.78831 0.302385 0.85082 4.79252 0.191234 0.882472 4.79159 0.328199 0.8412 4.65015 7.5331 -5.29941 5.19667 17.5491 -5.71686 -0.0 0.0 -0.0 -0.0137538 20.864 2.40838 -65.4671 -61.4586 26.3208 1.1027 -28.6446 0.281542 38.6531 -0.281069 -4.83729 -0.664068 -18.3607 -12.2979 -0.0 0.0 -0.0 9.17008 24.7374 -17.1426 -37.0836 56.9287 -45.3269 1.39875 34.7161 -0.437236 -25.7276 1.57638 -2.8591 2.07353 26.6924 -2.06693 0.0 0.0 0.0 40.5135 7.56141 -4.99463 -0.657628 0.0265195 0.0974357 -7.08206 27.4962 1.11091 14.2285 -0.0 -0.0 -0.0 0.0 -0.0 11.0 19.1812 -2.59369 -32.1445 0.0440323 -4.86873 39.6664 -5.46699 4.82897 -36.8552 0.0 0.0 0.0 0.0 0.0 
3483.12 670.263 -426.988 -162.665 -46.241 -167.003 4.77012 0.3125 1.09564 4.77076 0.242153 1.1133 4.77495 0.0976138 1.13514 4.77326 0.275652 1.10548 3.79592 7.54814 -3.77043 4.1907 16.3125 -3.83078 -0.0 0.0 -0.0 -0.0714952 21.843 2.4355 -64.6399 -62.6785 24.5102 1.09589 -28.4954 0.27828 38.0008 -0.249384 -4.76013 -0.752562 -18.5017 -12.9587 -0.0 0.0 -0.0 9.45175 24.1407 -17.8277 -35.0573 56.7425 -49.0852 1.28523 32.482 -0.374406 -25.693 1.57343 -2.85579 2.06112 27.1942 -1.7458 0.0 0.0 0.0 40.2342 7.67042 -5.03043 0.0805762 -0.00332631 -0.0119177 -10.7437 29.3815 1.71377 15.1284 -0.0 -0.0 -0.0 0.0 -0.0 10.3874 20.0159 -2.35202 -31.7706 0.0278166 -4.81365 40.4414 -6.64681 4.89803 -36.6372 0.0 0.0 0.0 0.0 0.0 
3499.73 674.311 -423.65 -162.284 -45.2865 -167.353 4.82314 0.173115 1.2571 4.82402 0.0927779 1.26557 4.82536 -0.0689489 1.26709 4.82314 0.132014 1.26208 3.1857 7.53695 -2.68601 3.49187 15.4108 -2.52127 -0.0 0.0 -0.0 -0.0620223 21.6789 2.43048 -63.7664 -63.2443 22.0889 1.08273 -28.2062 0.272033 37.5409 -0.227574 -4.70551 -0.80809 -18.6637 -13.4042 -0.0 0.0 -0.0 9.62973 23.4576 -18.2891 -34.3696 56.2912 -51.3849 1.17157 30.1282 -0.315338 -25.6661 1.57114 -2.85321 2.05302 27.5104 -1.54179 0.0 0.0 0.0 39.386 7.93246 -4.72916 0.571665 -0.0239619 -0.0844528 -13.5243 30.2905 2.17702 15.7205 -0.0 -0.0 -0.0 0.0 -0.0 10.2171 20.6417 -2.40319 -30.9881 -0.00495221 -4.69804 40.8043 -7.60036 4.93228 -36.4693 0.0 0.0 0.0 0.0 0.0 
3519.01 670.297 -422.229 -162.125 -44.5015 -167.375 4.85723 0.0807632 1.36348 4.85827 -0.00615403 1.36586 4.85728 -0.179109 1.35408 4.85472 0.0369697 1.36537 2.76038 7.51514 -1.92418 3.01341 14.7594 -1.6158 -0.0 0.0 -0.0 -0.0480342 21.5487 2.43576 -63.316 -63.7706 20.5689 1.07357 -28.0039 0.267716 37.2065 -0.211994 -4.66569 -0.844278 -18.7929 -13.7044 -0.0 0.0 -0.0 9.65032 22.943 -18.3819 -34.2611 55.729 -52.5839 1.08316 28.2156 -0.272234 -25.6181 1.56705 -2.84861 2.04722 27.7166 -1.40547 0.0 0.0 0.0 38.7891 8.07859 -4.47263 0.914895 -0.0387535 -0.135045 -15.5703 30.8275 2.52024 16.1159 -0.0 -0.0 -0.0 0.0 -0.0 10.1078 21.3264 -2.42855 -30.4355 -0.0271398 -4.61613 41.0157 -8.31281 4.95361 -36.3437 0.0 0.0 0.0 0.0 0.0 
3547.32 685.348 -417.063 -161.982 -44.4559 -166.201 5.05042 0.0201233 1.27164 5.05132 -0.0608284 1.27034 5.0492 -0.217056 1.25314 5.04701 -0.0164388 1.27169 3.5902 6.93817 -2.90202 3.88173 14.5259 -2.84679 -0.0 0.0 -0.0 0.199393 21.339 2.76592 -65.1361 -64.1841 18.4948 0.965155 -25.5525 0.218862 36.2573 -0.16904 -4.55219 -0.838054 -19.1967 -13.8282 -0.0 0.0 -0.0 8.5119 22.2244 -15.9152 -35.5163 54.1809 -54.471 1.00412 26.4457 -0.235942 -25.2541 1.53618 -2.81363 2.08198 28.5143 -1.24105 0.0 0.0 0.0 36.968 8.09407 -4.50475 0.284863 -0.0118346 -0.0421124 -15.4548 29.627 2.48074 17.1008 -0.0 -0.0 -0.0 0.0 -0.0 10.1541 25.2368 -1.87636 -30.0636 -0.041625 -4.5609 40.8975 -11.8451 4.97126 -35.9316 0.0 0.0 0.0 0.0 0.0 
3566.64 696.373 -412.227 -161.663 -44.3177 -165.147 5.22203 -0.00893205 1.22579 5.22287 -0.0869083 1.22274 5.22026 -0.233476 1.20339 5.21825 -0.0405087 1.22515 3.99411 6.52933 -3.37433 4.29859 14.198 -3.45223 -0.0 0.0 -0.0 0.58976 21.1962 3.31058 -66.1451 -65.0659 16.6471 0.891052 -23.8164 0.187911 35.352 -0.129833 -4.4433 -0.867254 -19.124 -13.9975 -0.0 0.0 -0.0 8.29489 21.4666 -15.5002 -32.0747 54.0067 -62.209 0.950962 25.2237 -0.212776 -24.9532 1.51084 -2.78458 2.05134 27.5473 -1.5133 0.0 0.0 0.0 35.6954 8.10062 -4.52665 -0.0341422 0.0014044 0.00505122 -13.5598 28.2343 2.15364 17.8532 -0.0 -0.0 -0.0 0.0 -0.0 9.6776 28.7036 -2.72136 -29.8479 -0.0498613 -4.52882 41.1756 -14.0996 5.02326 -35.2544 0.0 0.0 0.0 0.0 0.0 
3584.6 694.449 -406.582 -162.338 -44.3019 -165.901 5.36409 -0.0288722 1.18895 5.36487 -0.104464 1.1847 5.36199 -0.243449 1.16412 5.3601 -0.0565557 1.18796 4.2761 6.23309 -3.71975 4.59065 13.9688 -3.8944 -0.0 0.0 -0.0 0.737441 20.3799 3.44861 -67.0959 -64.9193 13.8796 0.82422 -22.2098 0.161781 34.7105 -0.103095 -4.36577 -0.885879 -19.0992 -14.1144 -0.0 0.0 -0.0 7.75457 21.4713 -14.3099 -30.5909 53.4448 -66.6297 0.895274 23.9166 -0.189619 -24.6555 1.48591 -2.75569 2.03871 26.8814 -1.75287 0.0 0.0 0.0 34.4798 8.17868 -4.27613 -0.398144 0.0161891 0.0589545 -12.2452 27.2842 1.93119 18.3819 -0.0 -0.0 -0.0 0.0 -0.0 9.6136 31.1366 -3.48298 -29.6623 -0.0568524 -4.5012 41.1722 -15.7023 5.04779 -34.8213 0.0 0.0 0.0 0.0 0.0 
3600.77 709.277 -396.121 -162.082 -44.8852 -165.179 5.46381 -0.0245643 1.15552 5.46455 -0.0980386 1.15162 5.46187 -0.231189 1.13243 5.46009 -0.0494539 1.15473 3.69611 5.58018 -4.49869 4.01087 13.5331 -4.74382 -0.0 0.0 -0.0 0.91994 19.837 3.66791 -69.1335 -65.1979 10.6198 0.776854 -21.0482 0.144321 33.22 -0.0443435 -4.18454 -0.880627 -19.2276 -14.1313 -0.0 0.0 -0.0 7.39198 21.8441 -13.482 -29.0913 51.6057 -70.296 0.820302 22.1144 -0.160303 -23.724 1.40889 -2.6645 2.03564 26.4291 -1.95022 0.0 0.0 0.0 32.4324 7.98772 -4.86237 -0.890285 0.0356331 0.131977 -11.2525 26.1678 1.76147 18.9409 -0.0 -0.0 -0.0 0.0 -0.0 9.93263 30.7845 -3.47676 -28.7861 -0.088645 -4.37048 41.0151 -15.9659 5.03847 -34.5985 0.0 0.0 0.0 0.0 0.0 
3616.6 707.489 -388.411 -162.595 -45.4566 -164.975 5.51077 0.0350124 1.09655 5.51144 -0.0348307 1.09656 5.51012 -0.161084 1.08522 5.50847 0.0123176 1.09704 2.21335 5.01088 -4.89653 2.49136 12.9108 -5.04133 -0.0 0.0 -0.0 1.14003 19.1979 3.94063 -71.2307 -65.3524 7.20098 0.74037 -20.1409 0.131487 31.9351 0.00250358 -4.02714 -0.886051 -19.2053 -14.1592 -0.0 0.0 -0.0 7.12722 22.1107 -12.8784 -27.7394 50.1453 -73.104 0.768793 20.8487 -0.141439 -22.4819 1.30852 -2.54099 2.10832 26.1555 -2.54895 0.0 0.0 0.0 31.2255 7.27122 -4.60962 -0.948746 0.0379011 0.140662 -10.5634 25.3892 1.64537 19.5004 -0.0 -0.0 -0.0 0.0 -0.0 9.95068 30.6089 -4.69763 -29.3301 -0.0691429 -4.45169 40.4568 -16.1782 4.99259 -34.4169 0.0 0.0 0.0 0.0 0.0 
3640.93 709.189 -398.1 -161.571 -45.734 -164.277 5.5209 0.0448804 0.913609 5.52136 -0.0133434 0.914614 5.52069 -0.118578 0.906993 5.51955 0.0261463 0.914337 -0.319251 4.9051 -4.32475 -0.127375 12.2744 -4.11685 -0.0 0.0 -0.0 2.84214 17.6533 6.42963 -72.5952 -65.4265 4.60773 0.651059 -17.8754 0.102393 31.3378 0.023072 -3.95364 -0.758897 -19.8373 -13.5525 -0.0 0.0 -0.0 6.93549 22.5392 -12.4204 -28.9953 48.4214 -73.1393 0.614854 16.9398 -0.0915614 -21.2478 1.2115 -2.41618 2.18865 28.6842 -1.83453 0.0 0.0 0.0 30.7125 5.02982 -2.45075 -1.04566 0.0416412 0.155066 -4.23062 24.4213 0.649518 18.9888 -0.0 -0.0 -0.0 0.0 -0.0 14.8094 33.7733 -6.1442 -36.2542 0.24582 -5.46677 41.5895 -20.0714 5.17458 -33.2343 0.0 0.0 0.0 0.0 0.0 
3659.08 705.578 -404.67 -161.512 -44.9377 -164.943 5.84989 0.0528788 0.819443 5.85027 0.000630212 0.821146 5.84988 -0.0892426 0.816283 5.84895 0.0407896 0.820133 -1.98317 4.72307 -4.03125 -1.83955 11.7195 -3.63476 -0.0 0.0 -0.0 4.26084 16.0675 8.62262 -73.3365 -65.6034 3.25018 0.577223 -15.9575 0.0809057 31.466 0.0187205 -3.96943 -0.723409 -19.3341 -13.1042 -0.0 0.0 -0.0 7.28164 23.7868 -13.0639 -29.2536 47.4314 -74.3712 0.427349 11.953 -0.0447393 -20.3819 1.14504 -2.32738 2.19533 28.8289 -1.806 0.0 0.0 0.0 30.4233 3.45296 -0.954355 -1.27505 0.0503965 0.18918 4.46604 23.543 -0.669812 19.4342 -0.0 -0.0 -0.0 0.0 -0.0 18.2384 35.8814 -8.28625 -43.0788 0.674163 -6.42381 42.2063 -21.5152 5.26699 -32.2054 0.0 0.0 0.0 0.0 0.0 
3675.99 709.125 -409.842 -162.348 -43.9355 -166.386 5.95861 0.061377 0.770897 5.95894 0.0121999 0.77324 5.95874 -0.0710346 0.770067 5.95792 0.051471 0.771622 -3.32411 4.69621 -3.54192 -3.22081 11.2913 -2.98006 -0.0 0.0 -0.0 4.88202 14.931 9.62852 -74.2068 -65.6576 3.90149 0.526192 -14.6098 0.067453 31.5532 0.0157415 -3.98017 -0.653712 -18.9918 -12.4893 -0.0 0.0 -0.0 6.96545 25.1693 -12.2361 -29.996 46.7932 -74.8324 0.306168 8.62433 -0.0230863 -19.7741 1.09919 -2.26446 2.19148 28.728 -1.83104 0.0 0.0 0.0 30.0817 2.4042 0.25657 -1.45324 0.0571034 0.215704 10.9525 22.8297 -1.60628 19.8947 -0.0 -0.0 -0.0 0.0 -0.0 22.0243 37.3232 -9.60742 -47.3384 0.998345 -6.99328 41.5719 -22.8964 5.24948 -31.8593 0.0 0.0 0.0 0.0 0.0 
3689.77 708.628 -406.795 -161.371 -43.1566 -166.049 6.06735 -0.0495972 0.420411 6.06744 -0.0762483 0.416403 6.06679 -0.119826 0.406014 6.06656 -0.0542008 0.419842 -4.25807 4.64359 -3.24835 -4.17867 10.973 -2.58789 -0.0 0.0 -0.0 5.38783 13.9335 10.4763 -74.8447 -65.6489 4.05455 0.490175 -13.6485 0.0586607 31.6082 0.0138557 -3.98694 -0.615383 -18.8104 -12.1539 -0.0 0.0 -0.0 6.99753 25.9543 -12.2269 -29.7169 46.2727 -75.7908 0.218723 6.18398 -0.011815 -19.307 1.06442 -2.21579 2.17487 28.4979 -1.83817 0.0 0.0 0.0 29.7592 1.65613 1.04621 -1.55909 0.0610486 0.23147 15.8165 22.5914 -2.2779 20.3449 -0.0 -0.0 -0.0 0.0 -0.0 24.8304 38.8424 -10.6689 -50.3176 1.24994 -7.37675 41.1388 -23.8619 5.2391 -31.5566 0.0 0.0 0.0 0.0 0.0 
